# 3ds Max Wavefront OBJ Exporter v0.97b - (c)2007 guruware
# File Created: 05.05.2018 14:05:37

mtllib banc_vieux.mtl

#
# object banc_vieux
#

v  7.6634 2.4698 0.2470
v  6.5078 2.4698 0.2470
v  6.5078 -2.4698 0.2470
v  7.6634 -2.4698 0.2470
v  7.6634 2.4698 0.0000
v  6.5078 2.4698 0.0000
v  6.5078 -2.4698 0.0000
v  7.6634 -2.4698 0.0000
v  -0.5753 1.1965 4.9746
v  0.2624 1.1965 4.9746
v  0.2624 1.0511 3.3164
v  -0.5753 1.0511 3.3164
v  -0.5753 0.7293 4.9746
v  -0.5753 0.3841 3.3164
v  0.2624 0.7293 4.9746
v  0.2624 0.3841 3.3164
v  -0.5753 1.8477 8.4220
v  0.2624 1.8477 8.4220
v  0.2624 1.4584 6.6327
v  -0.5753 1.4584 6.6327
v  -0.5753 1.5869 8.4220
v  -0.5753 1.0966 6.6327
v  0.2624 1.5869 8.4220
v  0.2624 1.0966 6.6327
v  -0.5753 2.1797 9.5725
v  0.2624 2.1797 9.5725
v  -0.5753 1.9205 9.5725
v  0.2624 1.9205 9.5725
v  -6.8542 1.4443 4.2151
v  -7.4370 1.4443 4.2151
v  -7.4370 -2.0948 4.4774
v  -6.8542 -2.0948 4.4774
v  -7.4370 0.0105 2.8128
v  -7.4370 1.4443 2.8128
v  -7.4370 1.4443 1.6682
v  -7.4370 0.0105 1.6682
v  -6.8542 0.0105 2.8128
v  -6.8542 0.0105 1.6682
v  -6.8542 1.4443 2.8128
v  -6.8542 1.4443 1.6682
v  -7.4370 1.4443 3.5674
v  -7.4370 -2.0948 3.8298
v  -7.4370 1.4443 0.0000
v  -7.4370 -0.8651 0.0000
v  -7.4370 -0.8651 0.7471
v  -7.4370 1.4443 0.7471
v  -6.8542 -2.0948 3.8298
v  -6.8542 -0.8651 0.0000
v  -6.8542 -0.8651 0.7471
v  -6.8542 1.4443 3.5674
v  -6.8542 1.4443 0.0000
v  -6.8542 1.4443 0.7471
v  -6.7379 2.4698 9.9491
v  -7.5755 2.4698 9.9491
v  -7.5755 2.1285 9.9491
v  -6.7379 2.1285 9.9491
v  -7.5755 1.6959 4.9746
v  -6.7379 1.6959 4.9746
v  -6.7379 1.5790 3.3164
v  -7.5755 1.5790 3.3164
v  -7.5755 1.1117 4.9746
v  -7.5755 0.9120 3.3164
v  -6.7379 1.1117 4.9746
v  -6.7379 0.9120 3.3164
v  -6.7379 2.1290 8.2909
v  -7.5756 2.1290 8.2909
v  -6.7379 1.8761 6.6327
v  -7.5755 1.8761 6.6327
v  -6.7379 1.4969 0.0000
v  -7.5755 1.4969 0.0000
v  -7.5756 1.5158 1.6582
v  -6.7379 1.5158 1.6582
v  -7.5755 1.7105 8.2909
v  -7.5755 1.3747 6.6327
v  -7.5755 0.6642 0.0000
v  -7.5756 0.7659 1.6582
v  -6.7379 1.7105 8.2909
v  -6.7379 1.3747 6.6327
v  -6.7379 0.6642 0.0000
v  -6.7379 0.7659 1.6582
v  7.5089 2.4698 9.9491
v  6.6712 2.4698 9.9491
v  6.6712 2.1285 9.9491
v  7.5089 2.1285 9.9491
v  6.6712 1.6959 4.9746
v  7.5089 1.6959 4.9746
v  7.5089 1.5790 3.3164
v  6.6712 1.5790 3.3164
v  6.6712 1.1117 4.9746
v  6.6712 0.9120 3.3164
v  7.5089 1.1117 4.9746
v  7.5089 0.9120 3.3164
v  7.5089 2.1290 8.2909
v  6.6712 2.1290 8.2909
v  7.5089 1.8761 6.6327
v  6.6712 1.8761 6.6327
v  7.5089 1.4969 0.0000
v  6.6712 1.4969 0.0000
v  6.6712 1.5158 1.6582
v  7.5089 1.5158 1.6582
v  6.6712 1.7105 8.2909
v  6.6712 1.3747 6.6327
v  6.6712 0.6642 0.0000
v  6.6712 0.7659 1.6582
v  7.5089 1.7105 8.2909
v  7.5089 1.3747 6.6327
v  7.5089 0.6642 0.0000
v  7.5089 0.7659 1.6582
v  7.3925 1.4443 4.2151
v  6.8098 1.4443 4.2151
v  6.8098 -2.0948 4.4774
v  7.3925 -2.0948 4.4774
v  6.8098 0.0105 2.8128
v  6.8098 1.4443 2.8128
v  6.8098 1.4443 1.6682
v  6.8098 0.0105 1.6682
v  7.3925 0.0105 2.8128
v  7.3925 0.0105 1.6682
v  7.3925 1.4443 2.8128
v  7.3925 1.4443 1.6682
v  6.8098 1.4443 3.5674
v  6.8098 -2.0948 3.8298
v  6.8098 1.4443 0.0000
v  6.8098 -0.8651 0.0000
v  6.8098 -0.8651 0.7471
v  6.8098 1.4443 0.7471
v  7.3925 -2.0948 3.8298
v  7.3925 -0.8651 0.0000
v  7.3925 -0.8651 0.7471
v  7.3925 1.4443 3.5674
v  7.3925 1.4443 0.0000
v  7.3925 1.4443 0.7471
v  -7.1787 1.2460 3.3214
v  -7.1787 1.2362 4.3257
v  7.1770 1.2362 4.3257
v  7.1770 1.2460 3.3214
v  -7.1787 0.9990 3.3190
v  -7.1787 0.9892 4.3233
v  7.1770 0.9892 4.3233
v  7.1770 0.9990 3.3190
v  -7.6921 1.5499 7.2384
v  -7.6921 2.1155 9.3678
v  7.7133 2.1155 9.3678
v  7.7133 1.5499 7.2384
v  -7.6921 1.3063 7.2384
v  -7.6921 1.8719 9.3678
v  7.7133 1.8719 9.3678
v  7.7133 1.3063 7.2384
v  -7.7049 1.5130 4.4370
v  -7.7049 -2.4698 4.5147
v  7.6911 -2.4698 4.5147
v  7.6911 1.5130 4.4370
v  -7.7049 1.4939 4.1305
v  -7.7049 -2.4698 4.2083
v  7.6911 -2.4698 4.2083
v  7.6911 1.4939 4.1305
v  -6.5577 2.4698 0.2470
v  -7.7133 2.4698 0.2470
v  -7.7133 -2.4698 0.2470
v  -6.5577 -2.4698 0.2470
v  -6.5577 2.4698 0.0000
v  -7.7133 2.4698 0.0000
v  -7.7133 -2.4698 0.0000
v  -6.5577 -2.4698 0.0000
# 164 vertices

vn -0.0000 -0.0000 1.0000
vn 0.0000 -0.0000 1.0000
vn 0.0000 1.0000 0.0000
vn -1.0000 0.0000 0.0000
vn 0.0000 -1.0000 0.0000
vn 1.0000 -0.0000 0.0000
vn 0.0000 0.9926 -0.1217
vn 0.0000 0.9962 -0.0874
vn 0.0000 -0.9777 0.2100
vn 0.0000 -0.9790 0.2038
vn 1.0000 0.0000 0.0000
vn 0.0000 0.9695 -0.2450
vn 0.0000 0.9829 -0.1844
vn -1.0000 0.0000 -0.0000
vn -0.0000 -0.9625 0.2714
vn 0.0000 -0.9707 0.2404
vn 0.0000 0.9608 -0.2772
vn -0.0000 -0.9604 0.2785
vn 0.0000 -0.9604 0.2785
vn 0.0000 0.0000 1.0000
vn 0.0000 0.0739 0.9973
vn -0.0000 -1.0000 -0.0000
vn -0.0000 -1.0000 0.0000
vn -0.0000 -0.9286 0.3710
vn 0.0000 -0.9286 0.3710
vn -0.0000 -0.4350 -0.9005
vn 0.0000 -0.4350 -0.9005
vn 0.0000 0.9960 -0.0892
vn 0.0000 0.9985 -0.0542
vn -0.0000 -0.9904 0.1382
vn -0.0000 -0.9946 0.1037
vn 0.0000 -0.9946 0.1037
vn 0.0000 0.9795 -0.2013
vn 0.0000 0.9844 -0.1761
vn 0.0000 0.9916 -0.1294
vn -0.0000 0.9999 -0.0114
vn 0.0000 0.9999 -0.0114
vn -0.0000 0.9997 -0.0248
vn -1.0000 -0.0000 0.0000
vn -1.0000 -0.0000 -0.0000
vn -0.0000 -0.9697 0.2445
vn 0.0000 -0.9697 0.2445
vn -0.0000 -0.9752 0.2215
vn 0.0000 -0.9841 0.1776
vn 0.0000 -0.9981 0.0613
vn 0.0000 -0.9972 0.0745
vn 0.0000 -0.9904 0.1382
vn 1.0000 -0.0000 -0.0000
vn 0.0000 1.0000 0.0098
vn -0.0000 -0.0098 1.0000
vn 0.0000 0.0098 -1.0000
vn -0.0000 -1.0000 -0.0098
vn 0.0000 0.9665 -0.2567
vn 0.0000 0.0000 -1.0000
vn -0.0000 -0.9665 0.2567
vn -0.0000 0.0195 0.9998
vn 0.0000 0.9981 -0.0623
vn 0.0000 -0.0196 -0.9998
vn -0.0000 -0.0196 -0.9998
# 59 vertex normals

vt 0.1863 0.5841 0.0000
vt 0.2164 0.5841 0.0000
vt 0.2164 0.7129 0.0000
vt 0.1863 0.7129 0.0000
vt 0.1863 0.5777 0.0000
vt 0.2164 0.5777 0.0000
vt 0.2228 0.5841 0.0000
vt 0.2228 0.7129 0.0000
vt 0.2164 0.7193 0.0000
vt 0.1863 0.7193 0.0000
vt 0.1798 0.7129 0.0000
vt 0.1798 0.5841 0.0000
vt 0.0424 0.5371 0.0000
vt 0.0117 0.5398 0.0000
vt 0.0054 0.4793 0.0000
vt 0.0359 0.4762 0.0000
vt 0.0594 0.5335 0.0000
vt 0.0597 0.4714 0.0000
vt 0.0903 0.5335 0.0000
vt 0.0903 0.4714 0.0000
vt 0.1143 0.4765 0.0000
vt 0.1070 0.5372 0.0000
vt 0.0500 0.6664 0.0000
vt 0.0192 0.6675 0.0000
vt 0.0160 0.6008 0.0000
vt 0.0467 0.5989 0.0000
vt 0.0594 0.6637 0.0000
vt 0.0595 0.5957 0.0000
vt 0.0903 0.6637 0.0000
vt 0.0903 0.5957 0.0000
vt 0.1031 0.5989 0.0000
vt 0.0995 0.6663 0.0000
vt 0.0509 0.7104 0.0000
vt 0.0203 0.7112 0.0000
vt 0.0597 0.7077 0.0000
vt 0.0903 0.7076 0.0000
vt 0.0995 0.7103 0.0000
vt 0.0904 0.7171 0.0000
vt 0.0597 0.7172 0.0000
vt 0.7368 0.6171 0.0000
vt 0.7512 0.6185 0.0000
vt 0.7446 0.7053 0.0000
vt 0.7302 0.7046 0.0000
vt 0.7857 0.6537 0.0000
vt 0.7858 0.6186 0.0000
vt 0.8139 0.6186 0.0000
vt 0.8139 0.6537 0.0000
vt 0.6957 0.6458 0.0000
vt 0.6868 0.6557 0.0000
vt 0.6648 0.6500 0.0000
vt 0.6658 0.6359 0.0000
vt 0.7039 0.6113 0.0000
vt 0.6784 0.6027 0.0000
vt 0.7672 0.6186 0.0000
vt 0.7606 0.7053 0.0000
vt 0.8549 0.6186 0.0000
vt 0.8549 0.6752 0.0000
vt 0.8366 0.6752 0.0000
vt 0.8366 0.6186 0.0000
vt 0.7215 0.7180 0.0000
vt 0.7066 0.7083 0.0000
vt 0.7159 0.7003 0.0000
vt 0.6158 0.6537 0.0000
vt 0.6185 0.6387 0.0000
vt 0.6352 0.6440 0.0000
vt 0.6351 0.6570 0.0000
vt 0.7214 0.6142 0.0000
vt 0.6410 0.5858 0.0000
vt 0.6580 0.5933 0.0000
vt 0.9587 0.9913 0.0000
vt 0.9280 0.9912 0.0000
vt 0.9280 0.9787 0.0000
vt 0.9588 0.9788 0.0000
vt 0.9070 0.7960 0.0000
vt 0.8763 0.7976 0.0000
vt 0.8732 0.7364 0.0000
vt 0.9039 0.7348 0.0000
vt 0.9282 0.7930 0.0000
vt 0.9282 0.7321 0.0000
vt 0.9588 0.7930 0.0000
vt 0.9588 0.7321 0.0000
vt 0.9832 0.7346 0.0000
vt 0.9801 0.7960 0.0000
vt 0.9157 0.9815 0.0000
vt 0.8850 0.9827 0.0000
vt 0.8824 0.9206 0.0000
vt 0.9131 0.9193 0.0000
vt 0.8794 0.8590 0.0000
vt 0.9101 0.8575 0.0000
vt 0.8665 0.6146 0.0000
vt 0.8972 0.6128 0.0000
vt 0.9007 0.6737 0.0000
vt 0.8700 0.6754 0.0000
vt 0.9281 0.9161 0.0000
vt 0.9282 0.8543 0.0000
vt 0.9278 0.6105 0.0000
vt 0.9281 0.6713 0.0000
vt 0.9588 0.9161 0.0000
vt 0.9588 0.8543 0.0000
vt 0.9588 0.6104 0.0000
vt 0.9588 0.6712 0.0000
vt 0.9738 0.9195 0.0000
vt 0.9710 0.9818 0.0000
vt 0.9769 0.8576 0.0000
vt 0.9894 0.6124 0.0000
vt 0.9862 0.6733 0.0000
vt 0.9171 0.3862 0.0000
vt 0.8863 0.3863 0.0000
vt 0.8863 0.3738 0.0000
vt 0.9171 0.3737 0.0000
vt 0.9689 0.1926 0.0000
vt 0.9382 0.1910 0.0000
vt 0.9413 0.1298 0.0000
vt 0.9720 0.1314 0.0000
vt 0.8863 0.1881 0.0000
vt 0.8650 0.1911 0.0000
vt 0.8619 0.1297 0.0000
vt 0.8863 0.1271 0.0000
vt 0.9170 0.1881 0.0000
vt 0.9170 0.1271 0.0000
vt 0.9601 0.3778 0.0000
vt 0.9293 0.3765 0.0000
vt 0.9320 0.3143 0.0000
vt 0.9627 0.3157 0.0000
vt 0.9351 0.2525 0.0000
vt 0.9658 0.2540 0.0000
vt 0.9477 0.0077 0.0000
vt 0.9784 0.0095 0.0000
vt 0.9751 0.0704 0.0000
vt 0.9444 0.0686 0.0000
vt 0.8741 0.3768 0.0000
vt 0.8713 0.3146 0.0000
vt 0.8863 0.3112 0.0000
vt 0.8682 0.2526 0.0000
vt 0.8863 0.2494 0.0000
vt 0.8556 0.0075 0.0000
vt 0.8862 0.0054 0.0000
vt 0.8863 0.0663 0.0000
vt 0.8589 0.0684 0.0000
vt 0.9170 0.3111 0.0000
vt 0.9170 0.2493 0.0000
vt 0.9170 0.0055 0.0000
vt 0.9170 0.0664 0.0000
vt 0.5124 0.5924 0.0000
vt 0.5109 0.6068 0.0000
vt 0.4242 0.6001 0.0000
vt 0.4249 0.5858 0.0000
vt 0.4757 0.6413 0.0000
vt 0.5109 0.6414 0.0000
vt 0.5109 0.6695 0.0000
vt 0.4757 0.6695 0.0000
vt 0.4837 0.5513 0.0000
vt 0.4738 0.5424 0.0000
vt 0.4795 0.5204 0.0000
vt 0.4936 0.5214 0.0000
vt 0.5182 0.5595 0.0000
vt 0.5268 0.5340 0.0000
vt 0.5109 0.6228 0.0000
vt 0.4241 0.6162 0.0000
vt 0.5109 0.7105 0.0000
vt 0.4543 0.7105 0.0000
vt 0.4543 0.6922 0.0000
vt 0.5109 0.6922 0.0000
vt 0.4114 0.5771 0.0000
vt 0.4212 0.5622 0.0000
vt 0.4292 0.5715 0.0000
vt 0.4758 0.4714 0.0000
vt 0.4907 0.4741 0.0000
vt 0.4854 0.4908 0.0000
vt 0.4725 0.4907 0.0000
vt 0.5153 0.5770 0.0000
vt 0.5437 0.4965 0.0000
vt 0.5362 0.5136 0.0000
vt 0.5631 0.5445 0.0000
vt 0.5631 0.5152 0.0000
vt 0.9825 0.5152 0.0000
vt 0.9825 0.5445 0.0000
vt 0.5631 0.4786 0.0000
vt 0.5631 0.5079 0.0000
vt 0.5559 0.5080 0.0000
vt 0.5559 0.4786 0.0000
vt 0.9825 0.5080 0.0000
vt 0.9825 0.4786 0.0000
vt 0.9898 0.4786 0.0000
vt 0.9898 0.5080 0.0000
vt 0.5631 0.4714 0.0000
vt 0.9825 0.4714 0.0000
vt 0.0179 0.9901 0.0000
vt 0.0180 0.8731 0.0000
vt 0.8359 0.8733 0.0000
vt 0.8359 0.9903 0.0000
vt 0.0180 0.7433 0.0000
vt 0.0180 0.8602 0.0000
vt 0.0055 0.8636 0.0000
vt 0.0054 0.7466 0.0000
vt 0.8359 0.8603 0.0000
vt 0.8359 0.7432 0.0000
vt 0.8484 0.7466 0.0000
vt 0.8484 0.8636 0.0000
vt 0.0180 0.7304 0.0000
vt 0.8359 0.7302 0.0000
vt 0.0217 0.4437 0.0000
vt 0.0217 0.2323 0.0000
vt 0.8392 0.2322 0.0000
vt 0.8392 0.4437 0.0000
vt 0.0054 0.4431 0.0000
vt 0.0055 0.2326 0.0000
vt 0.0217 0.2160 0.0000
vt 0.8392 0.2159 0.0000
vt 0.8555 0.2325 0.0000
vt 0.8555 0.4430 0.0000
vt 0.8392 0.4601 0.0000
vt 0.0217 0.4600 0.0000
vt 0.0218 0.0054 0.0000
vt 0.8392 0.0055 0.0000
vt 0.1318 0.4778 0.0000
vt 0.1619 0.4778 0.0000
vt 0.1619 0.6066 0.0000
vt 0.1318 0.6066 0.0000
vt 0.1318 0.4714 0.0000
vt 0.1619 0.4714 0.0000
vt 0.1684 0.4778 0.0000
vt 0.1684 0.6066 0.0000
vt 0.1619 0.6130 0.0000
vt 0.1318 0.6130 0.0000
vt 0.1253 0.6066 0.0000
vt 0.1253 0.4778 0.0000
# 227 texture coords

g banc_vieux
usemtl 01___Default
s 1
f 1/1/1 2/2/1 3/3/1 4/4/2 
s 2
f 5/5/3 6/6/3 2/2/3 1/1/3 
s 4
f 6/7/4 7/8/4 3/3/4 2/2/4 
s 2
f 7/9/5 8/10/5 4/4/5 3/3/5 
s 4
f 8/11/6 5/12/6 1/1/6 4/4/6 
s 1
f 9/13/7 10/14/7 11/15/8 12/16/8 
s 2
f 13/17/4 9/13/4 12/16/4 14/18/4 
s 1
f 15/19/9 13/17/9 14/18/10 16/20/10 
s 2
f 11/21/11 10/22/11 15/19/11 16/20/11 
s 1
f 17/23/12 18/24/12 19/25/13 20/26/13 
f 20/26/13 19/25/13 10/14/7 9/13/7 
s 2
f 21/27/4 17/23/14 20/26/4 22/28/4 
f 22/28/4 20/26/4 9/13/4 13/17/4 
s 1
f 23/29/15 21/27/15 22/28/16 24/30/16 
f 24/30/16 22/28/16 13/17/9 15/19/9 
s 2
f 19/31/11 18/32/6 23/29/11 24/30/11 
f 10/22/11 19/31/11 24/30/11 15/19/11 
s 1
f 25/33/17 26/34/17 18/24/12 17/23/12 
s 2
f 27/35/14 25/33/14 17/23/14 21/27/4 
s 1
f 28/36/18 27/35/19 21/27/15 23/29/15 
s 2
f 18/32/6 26/37/6 28/36/6 23/29/11 
s 4
f 27/35/20 28/36/20 26/38/20 25/39/20 
s 1
f 29/40/21 30/41/21 31/42/21 32/43/21 
s 2
f 33/44/4 34/45/4 35/46/4 36/47/4 
s 1
f 37/48/22 33/49/23 36/50/24 38/51/25 
s 2
f 39/52/11 37/48/6 38/51/11 40/53/11 
f 31/42/4 30/41/4 41/54/4 42/55/4 
f 42/55/4 41/54/4 34/45/4 33/44/4 
f 43/56/4 44/57/4 45/58/4 46/59/4 
f 46/59/4 45/58/4 36/47/4 35/46/4 
s 4
f 32/43/5 31/60/5 42/61/5 47/62/5 
s 8
f 47/62/26 42/61/27 33/49/26 37/48/26 
s 1
f 44/63/5 48/64/5 49/65/25 45/66/25 
f 45/66/25 49/65/25 38/51/25 36/50/24 
s 2
f 29/40/6 32/43/6 47/62/6 50/67/6 
f 50/67/6 47/62/6 37/48/6 39/52/11 
f 48/64/11 51/68/11 52/69/11 49/65/11 
f 49/65/11 52/69/11 40/53/11 38/51/11 
s 1
f 53/70/20 54/71/20 55/72/20 56/73/20 
s 2
f 57/74/28 58/75/28 59/76/29 60/77/29 
s 4
f 61/78/4 57/74/4 60/77/4 62/79/4 
s 2
f 63/80/30 61/78/30 62/79/31 64/81/32 
s 4
f 59/82/11 58/83/11 63/80/11 64/81/11 
s 2
f 54/84/33 53/85/33 65/86/34 66/87/34 
f 66/87/34 65/86/34 67/88/35 68/89/35 
f 68/89/35 67/88/35 58/75/28 57/74/28 
f 69/90/36 70/91/37 71/92/38 72/93/38 
f 72/93/38 71/92/38 60/77/29 59/76/29 
s 4
f 55/72/39 54/84/4 66/87/39 73/94/39 
f 73/94/39 66/87/39 68/89/40 74/95/4 
f 74/95/4 68/89/40 57/74/4 61/78/4 
f 70/91/40 75/96/14 76/97/14 71/92/39 
f 71/92/39 76/97/14 62/79/4 60/77/4 
s 2
f 56/73/41 55/72/42 73/94/43 77/98/43 
f 77/98/43 73/94/43 74/95/44 78/99/44 
f 78/99/44 74/95/44 61/78/30 63/80/30 
f 75/96/45 79/100/45 80/101/46 76/97/46 
f 76/97/46 80/101/46 64/81/32 62/79/31 
s 4
f 65/102/11 53/103/11 56/73/11 77/98/11 
f 67/104/11 65/102/11 77/98/11 78/99/11 
f 58/83/11 67/104/11 78/99/11 63/80/11 
f 80/101/11 79/100/11 69/105/11 72/106/11 
f 64/81/11 80/101/11 72/106/11 59/82/11 
s 1
f 81/107/20 82/108/20 83/109/20 84/110/20 
s 2
f 85/111/28 86/112/28 87/113/29 88/114/29 
s 4
f 89/115/4 85/116/4 88/117/4 90/118/4 
s 2
f 91/119/47 89/115/47 90/118/32 92/120/32 
s 4
f 87/113/48 86/112/6 91/119/6 92/120/48 
s 2
f 82/121/33 81/122/33 93/123/34 94/124/34 
f 94/124/34 93/123/34 95/125/35 96/126/35 
f 96/126/35 95/125/35 86/112/28 85/111/28 
f 97/127/36 98/128/37 99/129/38 100/130/38 
f 100/130/38 99/129/38 88/114/29 87/113/29 
s 4
f 83/109/39 82/131/4 94/132/39 101/133/39 
f 101/133/39 94/132/39 96/134/4 102/135/4 
f 102/135/4 96/134/4 85/116/4 89/115/4 
f 98/136/14 103/137/14 104/138/4 99/139/4 
f 99/139/4 104/138/4 90/118/4 88/117/4 
s 2
f 84/110/41 83/109/42 101/133/43 105/140/43 
f 105/140/43 101/133/43 102/135/44 106/141/44 
f 106/141/44 102/135/44 89/115/47 91/119/47 
f 103/137/45 107/142/45 108/143/46 104/138/46 
f 104/138/46 108/143/46 92/120/32 90/118/32 
s 4
f 93/123/11 81/122/11 84/110/11 105/140/48 
f 95/125/6 93/123/11 105/140/48 106/141/6 
f 86/112/6 95/125/6 106/141/6 91/119/6 
f 108/143/11 107/142/11 97/127/11 100/130/48 
f 92/120/48 108/143/11 100/130/48 87/113/48 
s 1
f 109/144/21 110/145/21 111/146/21 112/147/21 
s 2
f 113/148/14 114/149/14 115/150/4 116/151/4 
s 1
f 117/152/5 113/153/5 116/154/25 118/155/25 
s 2
f 119/156/6 117/152/6 118/155/48 120/157/48 
f 111/146/4 110/145/4 121/158/4 122/159/14 
f 122/159/14 121/158/4 114/149/14 113/148/14 
f 123/160/4 124/161/4 125/162/4 126/163/4 
f 126/163/4 125/162/4 116/151/4 115/150/4 
s 4
f 112/147/5 111/164/5 122/165/5 127/166/5 
s 8
f 127/166/27 122/165/27 113/153/27 117/152/27 
s 1
f 124/167/5 128/168/5 129/169/25 125/170/25 
f 125/170/25 129/169/25 118/155/25 116/154/25 
s 2
f 109/144/6 112/147/6 127/166/6 130/171/6 
f 130/171/6 127/166/6 117/152/6 119/156/6 
f 128/168/6 131/172/6 132/173/6 129/169/48 
f 129/169/48 132/173/6 120/157/48 118/155/48 
s 1
f 133/174/49 134/175/49 135/176/49 136/177/49 
s 2
f 137/178/4 138/179/4 134/180/4 133/181/4 
s 4
f 138/179/50 139/182/50 135/176/50 134/175/50 
s 2
f 139/182/11 140/183/11 136/184/11 135/185/11 
s 4
f 140/183/51 137/178/51 133/186/51 136/187/51 
s 1
f 139/182/52 138/179/52 137/178/52 140/183/52 
f 141/188/53 142/189/53 143/190/53 144/191/53 
s 2
f 145/192/4 146/193/4 142/194/4 141/195/4 
s 4
f 146/193/20 147/196/20 143/190/20 142/189/20 
s 2
f 147/196/11 148/197/11 144/198/11 143/199/11 
s 4
f 148/197/54 145/192/54 141/200/54 144/201/54 
s 1
f 147/196/55 146/193/55 145/192/55 148/197/55 
f 149/202/56 150/203/56 151/204/56 152/205/56 
s 2
f 153/206/4 154/207/4 150/203/4 149/202/4 
s 4
f 154/208/23 155/209/23 151/204/23 150/203/23 
s 2
f 155/210/6 156/211/6 152/205/6 151/204/6 
s 4
f 156/212/57 153/213/57 149/202/57 152/205/57 
s 1
f 155/209/58 154/208/58 153/214/58 156/215/59 
f 157/216/1 158/217/2 159/218/1 160/219/1 
s 2
f 161/220/3 162/221/3 158/217/3 157/216/3 
s 4
f 162/222/4 163/223/4 159/218/4 158/217/4 
s 2
f 163/224/23 164/225/23 160/219/23 159/218/23 
s 4
f 164/226/11 161/227/11 157/216/11 160/219/11 
# 127 polygons

