# 3ds Max Wavefront OBJ Exporter v0.97b - (c)2007 guruware
# File Created: 04.05.2018 10:55:36

mtllib board_black.mtl

#
# object board_black
#

v  0.3013 11.4950 0.0524
v  0.3013 -11.4491 0.0524
v  -0.2988 -11.4491 0.0524
v  -0.2988 11.4950 0.0524
v  0.3013 -11.4491 14.6550
v  -0.2988 -11.4491 14.6550
v  0.3013 11.4950 14.6550
v  -0.2988 11.4950 14.6550
v  -0.2988 -10.9902 0.6365
v  -0.2988 11.0361 0.6365
v  -0.2988 -10.9902 14.0709
v  -0.2988 11.0361 14.0709
v  0.3013 -10.9902 0.6365
v  0.3013 11.0361 0.6365
v  0.3013 -10.9902 14.0709
v  0.3013 11.0361 14.0709
v  0.2918 23.0811 0.0524
v  0.2918 11.6090 0.0524
v  -0.2988 11.6090 0.0524
v  -0.2988 23.0811 0.0524
v  0.2918 11.6090 14.6550
v  -0.2988 11.6090 14.6550
v  0.2918 23.0811 14.6550
v  -0.2988 23.0811 14.6550
v  -0.2988 12.0679 0.6365
v  -0.2988 22.6222 0.6365
v  -0.2988 12.0679 14.0709
v  -0.2988 22.6222 14.0709
v  0.3264 12.0679 0.6365
v  0.3264 22.6222 0.6365
v  0.3264 12.0679 14.0709
v  0.3264 22.6222 14.0709
v  -0.1641 22.6222 0.6365
v  -0.1641 12.0679 0.6365
v  -0.1641 12.0679 14.0709
v  -0.1641 22.6222 14.0709
v  -0.1574 11.0361 0.6365
v  -0.1574 -10.9902 0.6365
v  -0.1574 -10.9902 14.0709
v  -0.1574 11.0361 14.0709
v  -0.1641 -12.0679 0.6365
v  -0.1641 -22.6222 0.6365
v  -0.1641 -22.6222 14.0709
v  -0.1641 -12.0679 14.0709
v  0.3106 -11.6090 0.0524
v  0.3106 -23.0811 0.0524
v  -0.2988 -23.0811 0.0524
v  -0.2988 -11.6090 0.0524
v  0.3106 -23.0811 14.6550
v  -0.2988 -23.0811 14.6550
v  0.3106 -11.6090 14.6550
v  -0.2988 -11.6090 14.6550
v  -0.2988 -22.6222 0.6365
v  -0.2988 -12.0679 0.6365
v  -0.2988 -22.6222 14.0709
v  -0.2988 -12.0679 14.0709
v  0.3453 -22.6222 0.6365
v  0.3453 -12.0679 0.6365
v  0.3453 -22.6222 14.0709
v  0.3453 -12.0679 14.0709
v  -0.3322 -11.8023 12.9503
v  -0.3322 -11.2896 12.9503
v  -0.3322 -11.2896 11.4442
v  -0.3322 -11.8023 11.4442
v  -0.1977 -11.2896 11.4442
v  -0.1977 -11.8023 11.4442
v  -0.1977 -11.8023 12.9503
v  -0.1977 -11.2896 12.9503
v  -0.3322 -11.8023 2.9449
v  -0.3322 -11.2896 2.9449
v  -0.3322 -11.2896 1.4388
v  -0.3322 -11.8023 1.4388
v  -0.1977 -11.2896 1.4388
v  -0.1977 -11.8023 1.4388
v  -0.1977 -11.8023 2.9449
v  -0.1977 -11.2896 2.9449
v  -0.3322 11.2990 12.9503
v  -0.3322 11.8117 12.9503
v  -0.3322 11.8117 11.4442
v  -0.3322 11.2990 11.4442
v  -0.1977 11.8117 11.4442
v  -0.1977 11.2990 11.4442
v  -0.1977 11.2990 12.9503
v  -0.1977 11.8117 12.9503
v  -0.3322 11.2990 2.9449
v  -0.3322 11.8117 2.9449
v  -0.3322 11.8117 1.4388
v  -0.3322 11.2990 1.4388
v  -0.1977 11.8117 1.4388
v  -0.1977 11.2990 1.4388
v  -0.1977 11.2990 2.9449
v  -0.1977 11.8117 2.9449
# 92 vertices

vn 0.0000 0.0000 -1.0000
vn -0.0000 -1.0000 0.0000
vn 0.0000 0.0000 1.0000
vn 0.0000 1.0000 0.0000
vn -1.0000 0.0000 0.0000
vn -1.0000 0.0000 -0.0000
# 6 vertex normals

vt 0.0058 0.8220 0.0000
vt 0.0058 0.4956 0.0000
vt 0.0157 0.4956 0.0000
vt 0.0158 0.8207 0.0000
vt 0.0058 0.3345 0.0000
vt 0.0157 0.3358 0.0000
vt 0.0061 0.0058 0.0000
vt 0.0160 0.0079 0.0000
vt 0.0071 0.9855 0.0000
vt 0.0170 0.9834 0.0000
vt 0.0226 0.4956 0.0000
vt 0.0229 0.8181 0.0000
vt 0.0225 0.3384 0.0000
vt 0.0223 0.0187 0.0000
vt 0.0229 0.9726 0.0000
vt 0.0324 0.4956 0.0000
vt 0.0326 0.8168 0.0000
vt 0.0323 0.3396 0.0000
vt 0.0323 0.0208 0.0000
vt 0.0331 0.9704 0.0000
vt 0.6648 0.0331 0.0000
vt 0.5036 0.0332 0.0000
vt 0.5049 0.0234 0.0000
vt 0.6648 0.0233 0.0000
vt 0.3401 0.0321 0.0000
vt 0.3422 0.0224 0.0000
vt 0.9894 0.0320 0.0000
vt 0.8259 0.0332 0.0000
vt 0.8246 0.0234 0.0000
vt 0.9873 0.0223 0.0000
vt 0.5075 0.0164 0.0000
vt 0.6648 0.0164 0.0000
vt 0.3530 0.0164 0.0000
vt 0.8220 0.0164 0.0000
vt 0.9765 0.0163 0.0000
vt 0.5088 0.0063 0.0000
vt 0.6647 0.0062 0.0000
vt 0.3551 0.0059 0.0000
vt 0.8207 0.0062 0.0000
vt 0.9744 0.0058 0.0000
vt 0.5043 0.0461 0.0000
vt 0.9507 0.0461 0.0000
vt 0.9507 0.4925 0.0000
vt 0.5043 0.4925 0.0000
vt 0.0461 0.5447 0.0000
vt 0.9776 0.5447 0.0000
vt 0.9776 0.9910 0.0000
vt 0.0461 0.9910 0.0000
vt 0.0461 0.0461 0.0000
vt 0.4925 0.0461 0.0000
vt 0.4925 0.4925 0.0000
vt 0.0461 0.4925 0.0000
vt 0.8259 0.5324 0.0000
vt 0.6648 0.5323 0.0000
vt 0.6648 0.5222 0.0000
vt 0.8246 0.5222 0.0000
vt 0.5036 0.5324 0.0000
vt 0.5049 0.5223 0.0000
vt 0.3401 0.5313 0.0000
vt 0.3422 0.5213 0.0000
vt 0.9895 0.5312 0.0000
vt 0.9873 0.5212 0.0000
vt 0.6648 0.5153 0.0000
vt 0.8220 0.5152 0.0000
vt 0.5075 0.5153 0.0000
vt 0.3530 0.5153 0.0000
vt 0.9765 0.5152 0.0000
vt 0.6648 0.5048 0.0000
vt 0.8207 0.5048 0.0000
vt 0.5088 0.5048 0.0000
vt 0.3551 0.5044 0.0000
vt 0.9744 0.5043 0.0000
vt 0.0557 0.0250 0.0000
vt 0.0483 0.0250 0.0000
vt 0.0483 0.0080 0.0000
vt 0.0557 0.0080 0.0000
vt 0.0483 0.0058 0.0000
vt 0.0557 0.0058 0.0000
vt 0.0579 0.0080 0.0000
vt 0.0579 0.0250 0.0000
vt 0.0557 0.0272 0.0000
vt 0.0483 0.0272 0.0000
vt 0.0461 0.0250 0.0000
vt 0.0461 0.0080 0.0000
vt 0.9866 0.4919 0.0000
vt 0.9792 0.4919 0.0000
vt 0.9792 0.4748 0.0000
vt 0.9866 0.4748 0.0000
vt 0.9792 0.4726 0.0000
vt 0.9866 0.4726 0.0000
vt 0.9888 0.4748 0.0000
vt 0.9888 0.4919 0.0000
vt 0.9866 0.4941 0.0000
vt 0.9792 0.4941 0.0000
vt 0.9769 0.4919 0.0000
vt 0.9769 0.4748 0.0000
vt 0.0557 0.5293 0.0000
vt 0.0483 0.5293 0.0000
vt 0.0483 0.5123 0.0000
vt 0.0557 0.5123 0.0000
vt 0.0483 0.5101 0.0000
vt 0.0557 0.5101 0.0000
vt 0.0579 0.5123 0.0000
vt 0.0579 0.5293 0.0000
vt 0.0557 0.5316 0.0000
vt 0.0483 0.5316 0.0000
vt 0.0461 0.5293 0.0000
vt 0.0461 0.5123 0.0000
vt 0.9866 0.0654 0.0000
vt 0.9792 0.0654 0.0000
vt 0.9792 0.0483 0.0000
vt 0.9866 0.0483 0.0000
vt 0.9792 0.0461 0.0000
vt 0.9866 0.0461 0.0000
vt 0.9888 0.0483 0.0000
vt 0.9888 0.0654 0.0000
vt 0.9866 0.0676 0.0000
vt 0.9792 0.0676 0.0000
vt 0.9769 0.0654 0.0000
vt 0.9769 0.0483 0.0000
# 120 texture coords

g board_black
usemtl Material__2
s 8
f 1/1/1 2/2/1 3/3/1 4/4/1 
s 16
f 2/2/2 5/5/2 6/6/2 3/3/2 
s 32
f 5/5/3 7/7/3 8/8/3 6/6/3 
s 64
f 7/9/4 1/1/4 4/4/4 8/10/4 
s off
f 4/4/5 3/3/5 9/11/5 10/12/5 
f 3/3/5 6/6/5 11/13/5 9/11/5 
f 6/6/5 8/8/5 12/14/5 11/13/5 
f 8/10/5 4/4/5 10/12/5 12/15/5 
f 10/12/3 9/11/3 13/16/3 14/17/3 
f 9/11/4 11/13/4 15/18/4 13/16/4 
f 11/13/1 12/14/1 16/19/1 15/18/1 
f 12/15/2 10/12/2 14/17/2 16/20/2 
s 8
f 17/21/1 18/22/1 19/23/1 20/24/1 
s 16
f 18/22/2 21/25/2 22/26/2 19/23/2 
s 32
f 21/27/3 23/28/3 24/29/3 22/30/3 
s 64
f 23/28/4 17/21/4 20/24/4 24/29/4 
s off
f 20/24/5 19/23/5 25/31/5 26/32/5 
f 19/23/5 22/26/5 27/33/5 25/31/5 
f 22/30/5 24/29/5 28/34/5 27/35/5 
f 24/29/5 20/24/5 26/32/5 28/34/5 
f 26/32/3 25/31/3 29/36/3 30/37/3 
f 25/31/4 27/33/4 31/38/4 29/36/4 
f 27/35/1 28/34/1 32/39/1 31/40/1 
f 28/34/2 26/32/2 30/37/2 32/39/2 
s 4
f 33/41/6 34/42/6 35/43/6 36/44/6 
f 37/45/6 38/46/6 39/47/6 40/48/6 
f 41/49/6 42/50/6 43/51/6 44/52/6 
s 8
f 45/53/1 46/54/1 47/55/1 48/56/1 
s 16
f 46/54/2 49/57/2 50/58/2 47/55/2 
s 32
f 49/57/3 51/59/3 52/60/3 50/58/3 
s 64
f 51/61/4 45/53/4 48/56/4 52/62/4 
s off
f 48/56/5 47/55/5 53/63/5 54/64/5 
f 47/55/5 50/58/5 55/65/5 53/63/5 
f 50/58/5 52/60/5 56/66/5 55/65/5 
f 52/62/5 48/56/5 54/64/5 56/67/5 
f 54/64/3 53/63/3 57/68/3 58/69/3 
f 53/63/4 55/65/4 59/70/4 57/68/4 
f 55/65/1 56/66/1 60/71/1 59/70/1 
f 56/67/2 54/64/2 58/69/2 60/72/2 
s 4
f 61/73/6 62/74/6 63/75/6 64/76/6 
s 8
f 64/76/1 63/75/1 65/77/1 66/78/1 
s 16
f 61/73/2 64/76/2 66/79/2 67/80/2 
s 32
f 62/74/3 61/73/3 67/81/3 68/82/3 
s 64
f 63/75/4 62/74/4 68/83/4 65/84/4 
s 4
f 69/85/6 70/86/6 71/87/6 72/88/6 
s 8
f 72/88/1 71/87/1 73/89/1 74/90/1 
s 16
f 69/85/2 72/88/2 74/91/2 75/92/2 
s 32
f 70/86/3 69/85/3 75/93/3 76/94/3 
s 64
f 71/87/4 70/86/4 76/95/4 73/96/4 
s 4
f 77/97/6 78/98/6 79/99/6 80/100/6 
s 8
f 80/100/1 79/99/1 81/101/1 82/102/1 
s 16
f 77/97/2 80/100/2 82/103/2 83/104/2 
s 32
f 78/98/3 77/97/3 83/105/3 84/106/3 
s 64
f 79/99/4 78/98/4 84/107/4 81/108/4 
s 4
f 85/109/6 86/110/6 87/111/6 88/112/6 
s 8
f 88/112/1 87/111/1 89/113/1 90/114/1 
s 16
f 85/109/2 88/112/2 90/115/2 91/116/2 
s 32
f 86/110/3 85/109/3 91/117/3 92/118/3 
s 64
f 87/111/4 86/110/4 92/119/4 89/120/4 
# 59 polygons

