# 3ds Max Wavefront OBJ Exporter v0.97b - (c)2007 guruware
# File Created: 09.12.2017 14:59:11

mtllib bureau.mtl

#
# object bureau_porte_tiroir
#

v  5.0829 3.3526 8.3131
v  5.0829 -3.7560 8.3131
v  9.3829 -3.7560 8.3131
v  9.3829 3.3526 8.3131
v  9.4829 3.4526 0.3430
v  9.4829 3.4526 8.2131
v  9.4829 -3.8560 8.2131
v  9.4829 -3.8560 0.3430
v  4.9829 -3.8560 0.3430
v  4.9829 -3.8560 8.2131
v  4.9829 3.4526 8.2131
v  4.9829 3.4526 0.3430
v  5.2765 3.4526 7.7830
v  5.0536 3.4526 8.2423
v  9.3084 3.4526 8.2423
v  9.1271 3.4526 7.7830
v  9.1271 -3.4789 7.7830
v  5.2765 -3.4789 7.7830
v  9.0860 3.4526 0.9129
v  9.0860 -3.5344 0.9129
v  5.3391 3.1791 -0.0021
v  5.7647 3.1791 -0.0021
v  5.7647 2.7579 -0.0021
v  5.3391 2.7579 -0.0021
v  5.8050 2.7198 0.3979
v  5.3050 2.7198 0.3979
v  5.3050 3.2198 0.3979
v  5.8050 3.2198 0.3979
v  8.7845 3.1791 -0.0021
v  9.2101 3.1791 -0.0021
v  9.2101 2.7579 -0.0021
v  8.7845 2.7579 -0.0021
v  9.2503 2.7198 0.3979
v  8.7503 2.7198 0.3979
v  8.7503 3.2198 0.3979
v  9.2503 3.2198 0.3979
v  8.7845 -3.1355 -0.0021
v  9.2101 -3.1355 -0.0021
v  9.2101 -3.5567 -0.0021
v  8.7845 -3.5567 -0.0021
v  9.2503 -3.5948 0.3979
v  8.7503 -3.5948 0.3979
v  8.7503 -3.0948 0.3979
v  9.2503 -3.0948 0.3979
v  5.3391 -3.1355 -0.0021
v  5.7647 -3.1355 -0.0021
v  5.7647 -3.5567 -0.0021
v  5.3391 -3.5567 -0.0021
v  5.8050 -3.5948 0.3979
v  5.3050 -3.5948 0.3979
v  5.3050 -3.0948 0.3979
v  5.8050 -3.0948 0.3979
v  5.3176 3.4526 0.9129
v  5.3176 -3.5344 0.9129
v  -8.9589 3.3526 8.3131
v  -8.9589 -3.7560 8.3131
v  -4.6589 -3.7560 8.3131
v  -4.6589 3.3526 8.3131
v  -4.5589 3.4526 5.4232
v  -4.5589 3.4526 8.2131
v  -4.5589 -3.8560 8.2131
v  -4.5589 -3.8560 5.4232
v  -9.0589 -3.8560 5.4232
v  -9.0589 -3.8560 8.2131
v  -9.0589 3.4526 8.2131
v  -9.0589 3.4526 5.4232
v  -8.5301 3.4526 7.7830
v  -8.9882 3.4526 8.2423
v  -4.7334 3.4526 8.2423
v  -5.0876 3.4526 7.7830
v  -5.1287 -3.5344 2.1742
v  -5.1287 -3.5344 0.9129
v  -8.4890 -3.5344 0.9129
v  -8.4890 -3.5344 2.1742
v  -9.0589 -3.8560 0.3430
v  -4.5589 -3.8560 0.3430
v  -4.5589 -3.8560 2.7440
v  -9.0589 -3.8560 2.7440
v  -5.0876 3.4526 5.9992
v  -8.5301 3.4526 5.9992
v  -5.0876 -3.4789 7.7830
v  -8.5301 -3.4789 7.7830
v  -5.0876 -3.4789 5.9992
v  -8.5301 -3.4789 5.9992
v  -8.7027 3.1791 -0.0021
v  -8.2771 3.1791 -0.0021
v  -8.2771 2.7579 -0.0021
v  -8.7027 2.7579 -0.0021
v  -8.2368 2.7198 0.3979
v  -8.7368 2.7198 0.3979
v  -8.7368 3.2198 0.3979
v  -8.2368 3.2198 0.3979
v  -5.2573 3.1791 -0.0021
v  -4.8317 3.1791 -0.0021
v  -4.8317 2.7579 -0.0021
v  -5.2573 2.7579 -0.0021
v  -4.7915 2.7198 0.3979
v  -5.2915 2.7198 0.3979
v  -5.2915 3.2198 0.3979
v  -4.7915 3.2198 0.3979
v  -5.2573 -3.1355 -0.0021
v  -4.8317 -3.1355 -0.0021
v  -4.8317 -3.5567 -0.0021
v  -5.2573 -3.5567 -0.0021
v  -4.7915 -3.5948 0.3979
v  -5.2915 -3.5948 0.3979
v  -5.2915 -3.0948 0.3979
v  -4.7915 -3.0948 0.3979
v  -8.7027 -3.1355 -0.0021
v  -8.2771 -3.1355 -0.0021
v  -8.2771 -3.5567 -0.0021
v  -8.7027 -3.5567 -0.0021
v  -8.2368 -3.5948 0.3979
v  -8.7368 -3.5948 0.3979
v  -8.7368 -3.0948 0.3979
v  -8.2368 -3.0948 0.3979
v  -4.5589 3.4526 2.7440
v  -9.0589 3.4526 2.7440
v  -5.1287 -3.5344 3.3139
v  -8.4890 -3.5344 3.3139
v  -8.4890 -3.5344 4.8533
v  -5.1287 -3.5344 4.8533
v  -4.5589 3.4526 0.3430
v  -9.0589 3.4526 0.3430
v  -8.4890 3.4526 0.9129
v  -5.1287 3.4526 0.9129
v  -8.4890 3.4526 2.1742
v  -5.1287 3.4526 2.1742
v  -8.4890 3.4526 4.8533
v  -8.4890 3.4526 3.3139
v  -5.1287 3.4526 4.8533
v  -5.1287 3.4526 3.3139
v  10.5327 4.0000 8.3131
v  10.5327 -4.0000 8.3131
v  -10.5327 -4.0000 8.3131
v  -10.5327 4.0000 8.3131
v  10.5327 4.0000 8.7131
v  -10.5327 4.0000 8.7131
v  -10.5327 -4.0000 8.7131
v  10.5327 -4.0000 8.7131
v  5.2765 -3.3164 5.5507
v  9.1271 -3.3164 5.5507
v  9.1271 3.2319 5.5507
v  5.2228 3.2318 5.5507
v  9.0860 -3.3719 5.3743
v  5.3176 -3.3719 5.3743
v  5.2228 3.2318 5.3743
v  9.0860 3.2319 5.3743
v  5.2765 -3.3164 2.7794
v  9.1271 -3.3164 2.7794
v  9.1271 3.2319 2.7794
v  5.2228 3.2318 2.7794
v  9.0860 -3.3719 2.6031
v  5.3176 -3.3719 2.6031
v  5.2228 3.2318 2.6031
v  9.0860 3.2319 2.6031
# 156 vertices

vn 0.0000 0.0000 1.0000
vn 1.0000 0.0000 0.0000
vn -1.0000 0.0000 0.0000
vn 0.0000 1.0000 0.0000
vn 0.0000 -1.0000 0.0000
vn 0.1274 0.6347 0.7621
vn 0.0443 0.5991 0.7994
vn 0.0683 0.6098 0.7895
vn -0.0627 0.5644 0.8230
vn -0.2051 0.5247 0.8262
vn -0.3359 0.4765 0.8125
vn -0.7070 0.0000 0.7070
vn 0.0000 -0.7070 0.7070
vn 0.7070 0.0000 0.7070
vn 0.0000 0.0000 -1.0000
vn -1.0000 0.0000 0.0059
vn 0.0000 -0.9955 -0.0947
vn -0.9963 0.0000 -0.0851
vn 0.0000 0.9948 -0.1013
vn 0.9949 0.0000 -0.1001
vn 1.0000 0.0000 0.0059
vn 0.0683 0.6098 0.7894
vn 0.0000 1.0000 -0.0080
# 23 vertex normals

vt 0.4161 0.9868 0.0000
vt 0.2627 0.9868 0.0000
vt 0.2628 0.8941 0.0000
vt 0.4160 0.8941 0.0000
vt 0.4178 0.7215 0.0000
vt 0.4182 0.8913 0.0000
vt 0.2603 0.8916 0.0000
vt 0.2601 0.7217 0.0000
vt 0.1631 0.7218 0.0000
vt 0.1631 0.8916 0.0000
vt 0.0054 0.8916 0.0000
vt 0.0054 0.7218 0.0000
vt 0.5090 0.8817 0.0000
vt 0.5138 0.8916 0.0000
vt 0.4220 0.8919 0.0000
vt 0.4259 0.8820 0.0000
vt 0.4187 0.8954 0.0000
vt 0.4187 0.9874 0.0000
vt 0.4191 0.9890 0.0000
vt 0.2605 0.9899 0.0000
vt 0.4182 0.9898 0.0000
vt 0.2596 0.9889 0.0000
vt 0.5153 0.8910 0.0000
vt 0.3565 0.4807 0.0000
vt 0.3565 0.3976 0.0000
vt 0.5061 0.3976 0.0000
vt 0.5061 0.4807 0.0000
vt 0.5061 0.6289 0.0000
vt 0.3554 0.6290 0.0000
vt 0.6575 0.0268 0.0000
vt 0.6590 0.0177 0.0000
vt 0.6679 0.0192 0.0000
vt 0.6664 0.0283 0.0000
vt 0.6577 0.0359 0.0000
vt 0.6595 0.0449 0.0000
vt 0.6512 0.0474 0.0000
vt 0.6490 0.0369 0.0000
vt 0.6488 0.0261 0.0000
vt 0.6506 0.0154 0.0000
vt 0.6622 0.0092 0.0000
vt 0.6544 0.0054 0.0000
vt 0.7605 0.8752 0.0000
vt 0.7540 0.8687 0.0000
vt 0.7605 0.8623 0.0000
vt 0.7669 0.8688 0.0000
vt 0.7456 0.8525 0.0000
vt 0.7490 0.8611 0.0000
vt 0.7413 0.8651 0.0000
vt 0.7373 0.8551 0.0000
vt 0.7680 0.8803 0.0000
vt 0.7637 0.8879 0.0000
vt 0.7549 0.8818 0.0000
vt 0.7473 0.8741 0.0000
vt 0.6547 0.0580 0.0000
vt 0.6590 0.0661 0.0000
vt 0.6510 0.0704 0.0000
vt 0.6467 0.0623 0.0000
vt 0.6438 0.0752 0.0000
vt 0.6387 0.0657 0.0000
vt 0.6439 0.0536 0.0000
vt 0.6354 0.0554 0.0000
vt 0.6567 0.0774 0.0000
vt 0.6638 0.0833 0.0000
vt 0.6589 0.0904 0.0000
vt 0.6506 0.0836 0.0000
vt 0.7551 0.9059 0.0000
vt 0.7570 0.9148 0.0000
vt 0.7481 0.9167 0.0000
vt 0.7462 0.9078 0.0000
vt 0.7398 0.9194 0.0000
vt 0.7376 0.9088 0.0000
vt 0.7460 0.8987 0.0000
vt 0.7373 0.8981 0.0000
vt 0.7474 0.8896 0.0000
vt 0.7389 0.8874 0.0000
vt 0.7517 0.9251 0.0000
vt 0.7441 0.9293 0.0000
vt 0.5077 0.7335 0.0000
vt 0.4264 0.7337 0.0000
vt 0.5149 0.7212 0.0000
vt 0.3554 0.7103 0.0000
vt 0.5062 0.7102 0.0000
vt 0.3552 0.2494 0.0000
vt 0.5060 0.2493 0.0000
vt 0.1045 0.1783 0.0000
vt 0.2577 0.1778 0.0000
vt 0.2581 0.2705 0.0000
vt 0.1048 0.2711 0.0000
vt 0.5150 0.1150 0.0000
vt 0.5150 0.1752 0.0000
vt 0.3573 0.1752 0.0000
vt 0.3573 0.1150 0.0000
vt 0.2602 0.1150 0.0000
vt 0.2603 0.1752 0.0000
vt 0.1024 0.1752 0.0000
vt 0.1025 0.1150 0.0000
vt 0.0910 0.1659 0.0000
vt 0.1009 0.1758 0.0000
vt 0.0091 0.1758 0.0000
vt 0.0168 0.1659 0.0000
vt 0.5446 0.7303 0.0000
vt 0.5446 0.7031 0.0000
vt 0.6172 0.7031 0.0000
vt 0.6171 0.7303 0.0000
vt 0.2602 0.0054 0.0000
vt 0.3573 0.0054 0.0000
vt 0.3573 0.0572 0.0000
vt 0.2602 0.0572 0.0000
vt 0.0168 0.1274 0.0000
vt 0.0054 0.1752 0.0000
vt 0.0054 0.1150 0.0000
vt 0.0911 0.1274 0.0000
vt 0.0075 0.1784 0.0000
vt 0.1003 0.1784 0.0000
vt 0.2612 0.2726 0.0000
vt 0.5129 0.1783 0.0000
vt 0.3595 0.1783 0.0000
vt 0.8418 0.7778 0.0000
vt 0.8418 0.7035 0.0000
vt 0.9914 0.7035 0.0000
vt 0.9914 0.7778 0.0000
vt 0.8418 0.5908 0.0000
vt 0.8418 0.5523 0.0000
vt 0.9914 0.5523 0.0000
vt 0.9914 0.5908 0.0000
vt 0.8418 0.6651 0.0000
vt 0.9914 0.6651 0.0000
vt 0.6126 0.0232 0.0000
vt 0.6188 0.0299 0.0000
vt 0.6121 0.0361 0.0000
vt 0.6059 0.0294 0.0000
vt 0.6280 0.0142 0.0000
vt 0.6304 0.0054 0.0000
vt 0.6390 0.0067 0.0000
vt 0.6362 0.0172 0.0000
vt 0.6242 0.0225 0.0000
vt 0.6316 0.0269 0.0000
vt 0.6253 0.0357 0.0000
vt 0.6174 0.0430 0.0000
vt 0.0397 0.9413 0.0000
vt 0.0394 0.9504 0.0000
vt 0.0303 0.9502 0.0000
vt 0.0306 0.9410 0.0000
vt 0.0214 0.9482 0.0000
vt 0.0293 0.9588 0.0000
vt 0.0188 0.9565 0.0000
vt 0.0485 0.9489 0.0000
vt 0.0570 0.9457 0.0000
vt 0.0608 0.9535 0.0000
vt 0.0507 0.9573 0.0000
vt 0.0401 0.9591 0.0000
vt 0.0280 0.9717 0.0000
vt 0.0371 0.9705 0.0000
vt 0.0383 0.9795 0.0000
vt 0.0292 0.9807 0.0000
vt 0.0402 0.9880 0.0000
vt 0.0295 0.9894 0.0000
vt 0.0201 0.9802 0.0000
vt 0.0188 0.9888 0.0000
vt 0.0469 0.9767 0.0000
vt 0.0549 0.9721 0.0000
vt 0.0598 0.9793 0.0000
vt 0.0505 0.9846 0.0000
vt 0.2913 0.2068 0.0000
vt 0.2822 0.2053 0.0000
vt 0.2837 0.1964 0.0000
vt 0.2927 0.1979 0.0000
vt 0.2842 0.1877 0.0000
vt 0.2949 0.1894 0.0000
vt 0.3013 0.2009 0.0000
vt 0.3050 0.1930 0.0000
vt 0.3092 0.2055 0.0000
vt 0.3144 0.1985 0.0000
vt 0.2746 0.1966 0.0000
vt 0.2735 0.1880 0.0000
vt 0.5150 0.0572 0.0000
vt 0.1025 0.0572 0.0000
vt 0.8134 0.9577 0.0000
vt 0.8859 0.9578 0.0000
vt 0.8859 0.9910 0.0000
vt 0.8134 0.9910 0.0000
vt 0.5150 0.0054 0.0000
vt 0.1025 0.0054 0.0000
vt 0.0902 0.0177 0.0000
vt 0.0177 0.0177 0.0000
vt 0.0054 0.0054 0.0000
vt 0.0902 0.0449 0.0000
vt 0.0177 0.0449 0.0000
vt 0.0054 0.0572 0.0000
vt 0.0902 0.1027 0.0000
vt 0.0902 0.0695 0.0000
vt 0.0177 0.1027 0.0000
vt 0.0177 0.0695 0.0000
vt 0.5447 0.5523 0.0000
vt 0.6172 0.5523 0.0000
vt 0.6444 0.7031 0.0000
vt 0.6444 0.5523 0.0000
vt 0.7169 0.7031 0.0000
vt 0.7169 0.5523 0.0000
vt 0.5174 0.7030 0.0000
vt 0.5175 0.5523 0.0000
vt 0.9191 0.9578 0.0000
vt 0.8859 0.8070 0.0000
vt 0.9191 0.8070 0.0000
vt 0.9916 0.9578 0.0000
vt 0.9916 0.8070 0.0000
vt 0.7802 0.9577 0.0000
vt 0.7802 0.8070 0.0000
vt 0.8134 0.8070 0.0000
vt 0.9807 0.3669 0.0000
vt 0.9807 0.5395 0.0000
vt 0.5261 0.5396 0.0000
vt 0.5261 0.3669 0.0000
vt 0.9807 0.3582 0.0000
vt 0.5261 0.3584 0.0000
vt 0.5261 0.1858 0.0000
vt 0.9806 0.1856 0.0000
vt 0.5261 0.1772 0.0000
vt 0.9806 0.1769 0.0000
vt 0.9892 0.1856 0.0000
vt 0.9893 0.3582 0.0000
vt 0.5175 0.3584 0.0000
vt 0.5174 0.1858 0.0000
vt 0.0885 0.4780 0.0000
vt 0.0054 0.4780 0.0000
vt 0.0054 0.3367 0.0000
vt 0.0896 0.3367 0.0000
vt 0.0060 0.1905 0.0000
vt 0.0873 0.1903 0.0000
vt 0.0896 0.3329 0.0000
vt 0.0062 0.3329 0.0000
vt 0.2735 0.3979 0.0000
vt 0.2739 0.2496 0.0000
vt 0.1028 0.4210 0.0000
vt 0.1859 0.4209 0.0000
vt 0.1861 0.5622 0.0000
vt 0.1019 0.5623 0.0000
vt 0.1853 0.7085 0.0000
vt 0.1040 0.7086 0.0000
vt 0.1019 0.5661 0.0000
vt 0.1852 0.5661 0.0000
# 241 texture coords

g bureau_porte_tiroir
usemtl VarnishedWood
s 1
f 1/1/1 2/2/1 3/3/1 4/4/1 
f 5/5/2 6/6/2 7/7/2 8/8/2 
f 9/9/3 10/10/3 11/11/3 12/12/3 
s 2
f 13/13/4 14/14/4 15/15/4 16/16/4 
f 9/9/5 8/8/5 7/7/5 10/10/5 
s 4
f 6/6/6 15/17/7 4/4/8 
f 1/1/9 14/18/10 11/19/11 
s 8
f 10/20/12 2/2/12 1/1/12 11/21/12 
s 4
f 7/7/13 3/3/13 2/2/13 10/22/13 
f 14/18/10 1/1/9 4/4/8 15/17/7 
s 8
f 6/6/14 4/4/14 3/3/14 7/7/14 
s 2
f 16/16/4 15/15/4 6/6/4 
f 11/23/4 14/14/4 13/13/4 
s off
f 17/24/15 18/25/15 13/26/15 16/27/15 
s 5
f 17/24/16 16/27/16 19/28/16 20/29/16 
usemtl PVCBlue
s 4
f 21/30/15 22/31/15 23/32/15 24/33/15 
s 8
f 24/34/17 23/35/17 25/36/17 26/37/17 
s 16
f 21/30/18 24/34/18 26/37/18 27/38/18 
s 32
f 22/31/19 21/30/19 27/38/19 28/39/19 
s 64
f 23/40/20 22/31/20 28/39/20 25/41/20 
s 4
f 29/42/15 30/43/15 31/44/15 32/45/15 
s 8
f 32/46/17 31/47/17 33/48/17 34/49/17 
s 16
f 29/42/18 32/50/18 34/51/18 35/52/18 
s 32
f 30/43/19 29/42/19 35/52/19 36/53/19 
s 64
f 31/47/20 30/43/20 36/53/20 33/48/20 
s 4
f 37/54/15 38/55/15 39/56/15 40/57/15 
s 8
f 40/57/17 39/56/17 41/58/17 42/59/17 
s 16
f 37/60/18 40/57/18 42/59/18 43/61/18 
s 32
f 38/62/19 37/63/19 43/64/19 44/65/19 
s 64
f 39/56/20 38/62/20 44/65/20 41/58/20 
s 4
f 45/66/15 46/67/15 47/68/15 48/69/15 
s 8
f 48/69/17 47/68/17 49/70/17 50/71/17 
s 16
f 45/72/18 48/69/18 50/71/18 51/73/18 
s 32
f 46/74/19 45/72/19 51/73/19 52/75/19 
s 64
f 47/68/20 46/76/20 52/77/20 49/70/20 
usemtl VarnishedWood
s off
f 53/78/4 19/79/4 5/5/4 12/80/4 
s 2
f 13/13/4 53/78/4 12/80/4 11/23/4 
s off
f 54/81/1 20/29/1 19/28/1 53/82/1 
s 5
f 54/83/21 53/84/21 13/26/21 18/25/21 
s 1
f 55/85/1 56/86/1 57/87/1 58/88/1 
f 59/89/2 60/90/2 61/91/2 62/92/2 
f 63/93/3 64/94/3 65/95/3 66/96/3 
s 2
f 67/97/4 68/98/4 69/99/4 70/100/4 
f 71/101/4 72/102/4 73/103/4 74/104/4 
f 75/105/5 76/106/5 77/107/5 78/108/5 
f 79/109/4 70/100/4 60/110/4 59/111/4 
f 65/95/4 67/97/4 80/112/4 66/96/4 
s 4
f 60/110/6 69/99/7 58/113/22 
f 55/114/9 68/98/10 65/95/11 
s 8
f 64/94/12 56/86/12 55/85/12 65/95/12 
s 4
f 61/115/13 57/87/13 56/86/13 64/94/13 
f 68/98/10 55/114/9 58/113/22 69/99/7 
s 8
f 60/90/14 58/116/14 57/117/14 61/91/14 
s 2
f 70/100/4 69/99/4 60/110/4 
f 65/95/4 68/98/4 67/97/4 
s off
f 81/118/15 82/119/15 67/120/15 70/121/15 
f 83/122/3 81/123/3 70/124/3 79/125/3 
f 84/126/1 83/122/1 79/125/1 80/127/1 
f 82/119/2 84/126/2 80/127/2 67/120/2 
usemtl PVCBlue
s 4
f 85/128/15 86/129/15 87/130/15 88/131/15 
s 8
f 88/132/17 87/133/17 89/134/17 90/135/17 
s 16
f 85/136/18 88/132/18 90/135/18 91/137/18 
s 32
f 86/129/19 85/136/19 91/137/19 92/138/19 
s 64
f 87/130/20 86/129/20 92/138/20 89/139/20 
s 4
f 93/140/15 94/141/15 95/142/15 96/143/15 
s 8
f 96/144/17 95/142/17 97/145/17 98/146/17 
s 16
f 93/147/18 96/148/18 98/149/18 99/150/18 
s 32
f 94/141/19 93/147/19 99/150/19 100/151/19 
s 64
f 95/142/20 94/141/20 100/151/20 97/145/20 
s 4
f 101/152/15 102/153/15 103/154/15 104/155/15 
s 8
f 104/155/17 103/154/17 105/156/17 106/157/17 
s 16
f 101/158/18 104/155/18 106/157/18 107/159/18 
s 32
f 102/160/19 101/161/19 107/162/19 108/163/19 
s 64
f 103/154/20 102/160/20 108/163/20 105/156/20 
s 4
f 109/164/15 110/165/15 111/166/15 112/167/15 
s 8
f 112/167/17 111/166/17 113/168/17 114/169/17 
s 16
f 109/170/18 112/167/18 114/169/18 115/171/18 
s 32
f 110/172/19 109/170/19 115/171/19 116/173/19 
s 64
f 111/166/20 110/174/20 116/175/20 113/168/20 
usemtl VarnishedWood
s 1
f 59/89/2 62/92/2 77/107/2 117/176/2 
f 63/93/3 66/96/3 118/177/3 78/108/3 
s 2
f 59/111/4 66/96/4 80/112/4 79/109/4 
f 63/93/5 62/92/5 61/91/5 64/94/5 
f 119/178/4 120/179/4 121/180/4 122/181/4 
f 78/108/5 77/107/5 62/92/5 63/93/5 
s 1
f 117/176/2 77/107/2 76/106/2 123/182/2 
f 78/108/3 118/177/3 124/183/3 75/105/3 
s off
f 125/184/4 126/185/4 123/186/4 124/183/4 
f 127/187/4 125/184/4 124/183/4 118/177/4 
f 128/188/4 127/187/4 118/177/4 117/189/4 
f 126/185/4 128/188/4 117/189/4 123/186/4 
f 129/190/4 130/191/4 118/177/4 66/96/4 
f 131/192/4 129/190/4 66/96/4 59/111/4 
f 132/193/4 131/192/4 59/111/4 117/189/4 
f 130/191/4 132/193/4 117/189/4 118/177/4 
f 73/103/1 72/102/1 126/194/1 125/195/1 
f 74/196/2 73/103/2 125/195/2 127/197/2 
f 71/198/15 74/196/15 127/197/15 128/199/15 
f 72/102/3 71/200/3 128/201/3 126/194/3 
f 121/202/2 120/179/2 130/203/2 129/204/2 
f 122/205/15 121/202/15 129/204/15 131/206/15 
f 119/178/3 122/207/3 131/208/3 132/209/3 
f 120/179/1 119/178/1 132/209/1 130/203/1 
usemtl PVCRed
s 2
f 133/210/15 134/211/15 135/212/15 136/213/15 
s 4
f 137/214/1 138/215/1 139/216/1 140/217/1 
s 8
f 140/217/5 139/216/5 135/218/5 134/219/5 
s 16
f 137/214/2 140/217/2 134/220/2 133/221/2 
s 32
f 138/215/4 137/214/4 133/210/4 136/213/4 
s 64
f 139/216/3 138/215/3 136/222/3 135/223/3 
usemtl VarnishedWood
s 2
f 19/79/4 16/16/4 6/6/4 5/5/4 
usemtl Material__47
s off
f 141/224/1 142/225/1 143/226/1 144/227/1 
f 145/228/15 146/229/15 147/230/15 148/231/15 
s 2
f 147/230/4 144/227/4 143/226/4 148/231/4 
usemtl VarnishedWood
s off
f 54/83/23 18/25/23 17/232/23 20/233/23 
usemtl Material__47
f 149/234/1 150/235/1 151/236/1 152/237/1 
f 153/238/15 154/239/15 155/240/15 156/241/15 
s 2
f 155/240/4 152/237/4 151/236/4 156/241/4 
# 109 polygons - 8 triangles

