# 3ds Max Wavefront OBJ Exporter v0.97b - (c)2007 guruware
# File Created: 06.05.2018 14:25:39

mtllib table_yellow.mtl

#
# object table_yellow
#

v  7.0000 2.5192 7.3976
v  7.0000 -2.4808 7.3976
v  -7.0000 -2.4808 7.3976
v  -7.0000 2.5192 7.3976
v  7.0000 2.5192 7.5976
v  -7.0000 2.5192 7.5976
v  -7.0000 -2.4808 7.5976
v  7.0000 -2.4808 7.5976
v  6.1494 -2.2427 7.4169
v  -6.1494 -2.2427 7.4169
v  -6.1494 -2.2427 7.0433
v  6.1494 -2.2427 7.0433
v  6.1494 1.8838 7.4169
v  6.1494 1.8838 7.0433
v  -6.1494 1.8838 7.4169
v  -6.1494 1.8838 7.0433
v  -5.8494 1.5838 7.0433
v  -5.8494 -1.9427 7.0433
v  5.8494 1.5838 7.0433
v  5.8494 -1.9427 7.0433
v  -5.8494 1.5838 7.4169
v  -5.8494 -1.9427 7.4169
v  5.8494 1.5838 7.4169
v  5.8494 -1.9427 7.4169
v  6.0869 -2.2078 7.5382
v  5.8827 -2.2078 7.5382
v  5.8827 -2.2078 0.4872
v  6.0869 -2.2078 0.4872
v  6.1069 -1.8543 7.5382
v  6.1069 -2.1878 7.5382
v  6.1069 -2.1878 0.4872
v  6.1069 -1.8543 0.4872
v  5.8827 -1.8343 7.5382
v  6.0869 -1.8343 7.5382
v  6.0869 -1.8343 0.4872
v  5.8827 -1.8343 0.4872
v  5.8627 -2.1878 7.5382
v  5.8627 -1.8543 7.5382
v  5.8627 -1.8543 0.4872
v  5.8627 -2.1878 0.4872
v  6.1494 2.0054 0.5501
v  6.1494 -2.2440 0.5501
v  6.1494 -2.2440 0.2165
v  6.1494 2.0054 0.2165
v  -6.1494 -2.2440 0.5501
v  -6.1494 2.0054 0.5501
v  -6.1494 2.0054 0.2165
v  -6.1494 -2.2440 0.2165
v  -5.8694 2.0054 0.1965
v  -5.8694 -2.2440 0.1965
v  -6.1294 -2.2440 0.1965
v  -6.1294 2.0054 0.1965
v  5.8694 -2.2440 0.1965
v  5.8694 2.0054 0.1965
v  6.1294 2.0054 0.1965
v  6.1294 -2.2440 0.1965
v  5.8694 2.0054 0.5701
v  5.8694 -2.2440 0.5701
v  6.1294 -2.2440 0.5701
v  6.1294 2.0054 0.5701
v  -5.8694 -2.2440 0.5701
v  -5.8694 2.0054 0.5701
v  -6.1294 2.0054 0.5701
v  -6.1294 -2.2440 0.5701
v  -5.8494 2.0054 0.5501
v  -5.8494 -2.2440 0.5501
v  -5.8494 -2.2440 0.2165
v  -5.8494 2.0054 0.2165
v  5.8494 -2.2440 0.5501
v  5.8494 2.0054 0.5501
v  5.8494 2.0054 0.2165
v  5.8494 -2.2440 0.2165
v  -5.8919 -2.2078 7.5382
v  -6.0961 -2.2078 7.5382
v  -6.0961 -2.2078 0.4872
v  -5.8919 -2.2078 0.4872
v  -5.8719 -1.8543 7.5382
v  -5.8719 -2.1878 7.5382
v  -5.8719 -2.1878 0.4872
v  -5.8719 -1.8543 0.4872
v  -6.0961 -1.8343 7.5382
v  -5.8919 -1.8343 7.5382
v  -5.8919 -1.8343 0.4872
v  -6.0961 -1.8343 0.4872
v  -6.1161 -2.1878 7.5382
v  -6.1161 -1.8543 7.5382
v  -6.1161 -1.8543 0.4872
v  -6.1161 -2.1878 0.4872
v  -6.1494 -2.5192 0.4699
v  -6.1494 -2.2475 0.1934
v  -6.1494 -2.5192 0.1934
v  -5.8494 -2.2475 0.5699
v  -6.1494 -2.2475 0.5699
v  -6.1494 -2.4192 0.5699
v  -5.8494 -2.4192 0.5699
v  -5.8494 -2.2475 0.0934
v  -6.1494 -2.2475 0.0934
v  -6.1494 -1.9752 0.0934
v  -5.8494 -1.9752 0.0934
v  -5.8494 -2.5192 0.1934
v  -5.8494 -2.5192 0.4699
v  -5.8494 -2.2475 0.1934
v  -5.8494 -2.5192 0.0934
v  -6.1494 -1.9752 0.1934
v  -5.8494 -1.9752 0.1934
v  -6.1494 -2.5192 0.0934
v  -6.1424 -2.2475 0.1934
v  -6.1424 -1.9822 0.1934
v  -5.8564 -1.9822 0.1934
v  -5.8564 -2.2475 0.1934
v  -5.8564 -2.2475 0.5629
v  -6.1424 -2.2475 0.5629
v  -6.1494 2.2809 0.1934
v  -6.1494 2.0092 0.1934
v  -6.1494 2.2809 0.4699
v  -5.8494 2.1809 0.5699
v  -6.1494 2.1809 0.5699
v  -6.1494 2.0092 0.5699
v  -5.8494 2.0092 0.5699
v  -5.8494 1.7369 0.0934
v  -6.1494 1.7369 0.0934
v  -6.1494 2.0092 0.0934
v  -5.8494 2.0092 0.0934
v  -5.8494 2.2809 0.4699
v  -5.8494 2.2809 0.1934
v  -5.8494 2.2809 0.0934
v  -5.8494 2.0092 0.1934
v  -5.8494 1.7369 0.1934
v  -6.1494 1.7369 0.1934
v  -6.1494 2.2809 0.0934
v  -6.1424 1.7439 0.1934
v  -6.1424 2.0092 0.1934
v  -5.8564 1.7439 0.1934
v  -5.8564 2.0092 0.1934
v  -5.8564 2.0092 0.5629
v  -6.1424 2.0092 0.5629
v  5.8494 2.2809 0.1934
v  5.8494 2.0092 0.1934
v  5.8494 2.2809 0.4699
v  6.1494 2.1809 0.5699
v  5.8494 2.1809 0.5699
v  5.8494 2.0092 0.5699
v  6.1494 2.0092 0.5699
v  6.1494 1.7369 0.0934
v  5.8494 1.7369 0.0934
v  5.8494 2.0092 0.0934
v  6.1494 2.0092 0.0934
v  6.1494 2.2809 0.4699
v  6.1494 2.2809 0.1934
v  6.1494 2.2809 0.0934
v  6.1494 2.0092 0.1934
v  6.1494 1.7369 0.1934
v  5.8494 1.7369 0.1934
v  5.8494 2.2809 0.0934
v  5.8564 1.7439 0.1934
v  5.8564 2.0092 0.1934
v  6.1424 1.7439 0.1934
v  6.1424 2.0092 0.1934
v  6.1424 2.0092 0.5629
v  5.8564 2.0092 0.5629
v  5.8494 -2.5192 0.4699
v  5.8494 -2.2475 0.1934
v  5.8494 -2.5192 0.1934
v  6.1494 -2.2475 0.5699
v  5.8494 -2.2475 0.5699
v  5.8494 -2.4192 0.5699
v  6.1494 -2.4192 0.5699
v  6.1494 -2.2475 0.0934
v  5.8494 -2.2475 0.0934
v  5.8494 -1.9752 0.0934
v  6.1494 -1.9752 0.0934
v  6.1494 -2.5192 0.1934
v  6.1494 -2.5192 0.4699
v  6.1494 -2.2475 0.1934
v  6.1494 -2.5192 0.0934
v  5.8494 -1.9752 0.1934
v  6.1494 -1.9752 0.1934
v  5.8494 -2.5192 0.0934
v  5.8564 -2.2475 0.1934
v  5.8564 -1.9822 0.1934
v  6.1424 -1.9822 0.1934
v  6.1424 -2.2475 0.1934
v  6.1424 -2.2475 0.5629
v  5.8564 -2.2475 0.5629
# 184 vertices

vn 0.0000 0.0000 -1.0000
vn 0.0000 0.0000 1.0000
vn 0.0000 -1.0000 0.0000
vn 1.0000 0.0000 0.0000
vn 0.0000 1.0000 0.0000
vn -1.0000 0.0000 0.0000
vn 0.7071 -0.7071 0.0000
vn -0.7071 -0.7071 0.0000
vn 0.7071 0.7071 0.0000
vn -0.7071 0.7071 0.0000
vn -0.7071 0.0000 -0.7071
vn 0.7071 0.0000 -0.7071
vn 0.7071 0.0000 0.7071
vn -0.7071 0.0000 0.7071
vn 0.0000 -0.0000 1.0000
vn -0.0000 1.0000 0.0000
vn 0.0000 1.0000 -0.0000
vn -0.0000 1.0000 -0.0000
vn 0.0000 -0.7071 0.7071
vn -0.0000 -1.0000 0.0000
vn 0.0000 -1.0000 -0.0000
vn -0.0000 -1.0000 -0.0000
vn 0.0000 0.7071 0.7071
# 23 vertex normals

vt 0.9085 0.0137 0.0000
vt 0.9085 0.3054 0.0000
vt 0.0918 0.3054 0.0000
vt 0.0918 0.0137 0.0000
vt 0.0940 0.3177 0.0000
vt 0.9108 0.3177 0.0000
vt 0.9108 0.6094 0.0000
vt 0.0940 0.6094 0.0000
vt 0.0262 0.9249 0.0000
vt 0.5757 0.9256 0.0000
vt 0.5754 0.9335 0.0000
vt 0.0262 0.9327 0.0000
vt 0.5720 0.9590 0.0000
vt 0.7676 0.9762 0.0000
vt 0.7670 0.9840 0.0000
vt 0.5717 0.9669 0.0000
vt 0.0225 0.9572 0.0000
vt 0.0224 0.9651 0.0000
vt 0.7714 0.9423 0.0000
vt 0.7707 0.9501 0.0000
vt 0.4722 0.7019 0.0000
vt 0.8057 0.6291 0.0000
vt 0.8075 0.6393 0.0000
vt 0.4773 0.7103 0.0000
vt 0.3982 0.7905 0.0000
vt 0.4064 0.7969 0.0000
vt 0.4926 0.7537 0.0000
vt 0.8256 0.6791 0.0000
vt 0.8276 0.6893 0.0000
vt 0.4977 0.7620 0.0000
vt 0.4190 0.8427 0.0000
vt 0.4273 0.8491 0.0000
vt 0.5033 0.7712 0.0000
vt 0.4394 0.8474 0.0000
vt 0.8207 0.6993 0.0000
vt 0.4829 0.7195 0.0000
vt 0.4185 0.7953 0.0000
vt 0.8006 0.6493 0.0000
vt 0.5085 0.7797 0.0000
vt 0.4474 0.8537 0.0000
vt 0.8226 0.7094 0.0000
vt 0.4881 0.7280 0.0000
vt 0.4265 0.8017 0.0000
vt 0.8025 0.6594 0.0000
vt 0.8979 0.8912 0.0000
vt 0.8914 0.8913 0.0000
vt 0.8894 0.6675 0.0000
vt 0.8959 0.6674 0.0000
vt 0.9093 0.8911 0.0000
vt 0.8987 0.8912 0.0000
vt 0.8968 0.6674 0.0000
vt 0.9074 0.6673 0.0000
vt 0.9167 0.8911 0.0000
vt 0.9102 0.8911 0.0000
vt 0.9083 0.6673 0.0000
vt 0.9148 0.6672 0.0000
vt 0.9282 0.8910 0.0000
vt 0.9176 0.8911 0.0000
vt 0.9157 0.6672 0.0000
vt 0.9262 0.6671 0.0000
vt 0.6866 0.8812 0.0000
vt 0.8190 0.8823 0.0000
vt 0.8189 0.8927 0.0000
vt 0.6865 0.8916 0.0000
vt 0.8227 0.8279 0.0000
vt 0.6903 0.8245 0.0000
vt 0.6906 0.8141 0.0000
vt 0.8230 0.8175 0.0000
vt 0.6908 0.8051 0.0000
vt 0.8232 0.8085 0.0000
vt 0.8230 0.8166 0.0000
vt 0.6906 0.8132 0.0000
vt 0.8188 0.9017 0.0000
vt 0.6864 0.9005 0.0000
vt 0.6865 0.8924 0.0000
vt 0.8189 0.8936 0.0000
vt 0.6867 0.8722 0.0000
vt 0.8191 0.8733 0.0000
vt 0.8190 0.8814 0.0000
vt 0.6866 0.8803 0.0000
vt 0.8224 0.8369 0.0000
vt 0.6901 0.8334 0.0000
vt 0.6903 0.8253 0.0000
vt 0.8227 0.8288 0.0000
vt 0.6901 0.8343 0.0000
vt 0.8224 0.8378 0.0000
vt 0.8221 0.8482 0.0000
vt 0.6898 0.8447 0.0000
vt 0.8191 0.8725 0.0000
vt 0.6867 0.8713 0.0000
vt 0.6868 0.8609 0.0000
vt 0.8192 0.8621 0.0000
vt 0.9709 0.8911 0.0000
vt 0.9644 0.8910 0.0000
vt 0.9683 0.6671 0.0000
vt 0.9748 0.6673 0.0000
vt 0.9447 0.8906 0.0000
vt 0.9341 0.8904 0.0000
vt 0.9380 0.6666 0.0000
vt 0.9486 0.6668 0.0000
vt 0.9521 0.8907 0.0000
vt 0.9456 0.8906 0.0000
vt 0.9495 0.6668 0.0000
vt 0.9560 0.6669 0.0000
vt 0.9635 0.8909 0.0000
vt 0.9530 0.8908 0.0000
vt 0.9569 0.6669 0.0000
vt 0.9674 0.6671 0.0000
vt 0.8885 0.6675 0.0000
vt 0.8905 0.8913 0.0000
vt 0.8221 0.8490 0.0000
vt 0.6898 0.8456 0.0000
vt 0.6868 0.8600 0.0000
vt 0.8192 0.8612 0.0000
vt 0.9718 0.8911 0.0000
vt 0.9757 0.6673 0.0000
vt 0.1287 0.8244 0.0000
vt 0.1264 0.8394 0.0000
vt 0.1200 0.8310 0.0000
vt 0.1313 0.8076 0.0000
vt 0.1384 0.8170 0.0000
vt 0.1331 0.8211 0.0000
vt 0.1260 0.8117 0.0000
vt 0.3617 0.7969 0.0000
vt 0.3500 0.7977 0.0000
vt 0.3493 0.7870 0.0000
vt 0.3611 0.7863 0.0000
vt 0.1129 0.8216 0.0000
vt 0.1216 0.8150 0.0000
vt 0.3656 0.7967 0.0000
vt 0.3663 0.8073 0.0000
vt 0.3624 0.8076 0.0000
vt 0.3491 0.7831 0.0000
vt 0.3608 0.7824 0.0000
vt 0.3461 0.7979 0.0000
vt 0.3454 0.7873 0.0000
vt 0.3627 0.8115 0.0000
vt 0.3509 0.8122 0.0000
vt 0.3507 0.8083 0.0000
vt 0.1223 0.8096 0.0000
vt 0.1065 0.8131 0.0000
vt 0.1183 0.8042 0.0000
vt 0.3650 0.7860 0.0000
vt 0.3468 0.8085 0.0000
vt 0.3458 0.7979 0.0000
vt 0.3451 0.7876 0.0000
vt 0.3493 0.7828 0.0000
vt 0.3605 0.7821 0.0000
vt 0.3653 0.7863 0.0000
vt 0.3659 0.7967 0.0000
vt 0.1063 0.8129 0.0000
vt 0.1179 0.8041 0.0000
vt 0.1317 0.8077 0.0000
vt 0.1385 0.8166 0.0000
vt 0.1382 0.8305 0.0000
vt 0.1382 0.8309 0.0000
vt 0.1266 0.8397 0.0000
vt 0.1342 0.8252 0.0000
vt 0.2825 0.7795 0.0000
vt 0.2929 0.7818 0.0000
vt 0.2801 0.7900 0.0000
vt 0.2674 0.7929 0.0000
vt 0.2789 0.7955 0.0000
vt 0.2774 0.8020 0.0000
vt 0.2659 0.7994 0.0000
vt 0.2741 0.8404 0.0000
vt 0.2623 0.8411 0.0000
vt 0.2617 0.8304 0.0000
vt 0.2734 0.8298 0.0000
vt 0.2686 0.7875 0.0000
vt 0.2710 0.7769 0.0000
vt 0.2728 0.8191 0.0000
vt 0.2767 0.8189 0.0000
vt 0.2774 0.8295 0.0000
vt 0.2743 0.8443 0.0000
vt 0.2626 0.8450 0.0000
vt 0.2584 0.8413 0.0000
vt 0.2578 0.8307 0.0000
vt 0.2611 0.8198 0.0000
vt 0.2609 0.8159 0.0000
vt 0.2726 0.8152 0.0000
vt 0.2574 0.7889 0.0000
vt 0.2607 0.7745 0.0000
vt 0.2639 0.7904 0.0000
vt 0.2780 0.8402 0.0000
vt 0.2572 0.8200 0.0000
vt 0.2581 0.8411 0.0000
vt 0.2575 0.8307 0.0000
vt 0.2740 0.8446 0.0000
vt 0.2628 0.8453 0.0000
vt 0.2776 0.8295 0.0000
vt 0.2782 0.8399 0.0000
vt 0.2572 0.7886 0.0000
vt 0.2604 0.7745 0.0000
vt 0.2771 0.8022 0.0000
vt 0.2661 0.7998 0.0000
vt 0.2931 0.7819 0.0000
vt 0.2900 0.7960 0.0000
vt 0.2896 0.7962 0.0000
vt 0.2831 0.7947 0.0000
vt 0.3511 0.8293 0.0000
vt 0.3612 0.8261 0.0000
vt 0.3544 0.8396 0.0000
vt 0.3449 0.8485 0.0000
vt 0.3561 0.8449 0.0000
vt 0.3581 0.8513 0.0000
vt 0.3469 0.8549 0.0000
vt 0.0880 0.8294 0.0000
vt 0.0762 0.8296 0.0000
vt 0.0760 0.8189 0.0000
vt 0.0878 0.8187 0.0000
vt 0.3432 0.8432 0.0000
vt 0.3399 0.8329 0.0000
vt 0.0876 0.8081 0.0000
vt 0.0915 0.8080 0.0000
vt 0.0917 0.8186 0.0000
vt 0.0881 0.8333 0.0000
vt 0.0763 0.8335 0.0000
vt 0.0723 0.8297 0.0000
vt 0.0721 0.8190 0.0000
vt 0.0758 0.8083 0.0000
vt 0.0757 0.8044 0.0000
vt 0.0875 0.8041 0.0000
vt 0.3342 0.8502 0.0000
vt 0.3297 0.8361 0.0000
vt 0.3406 0.8482 0.0000
vt 0.0919 0.8293 0.0000
vt 0.0719 0.8084 0.0000
vt 0.0720 0.8294 0.0000
vt 0.0718 0.8190 0.0000
vt 0.0878 0.8336 0.0000
vt 0.0766 0.8338 0.0000
vt 0.0920 0.8186 0.0000
vt 0.0922 0.8290 0.0000
vt 0.3339 0.8500 0.0000
vt 0.3295 0.8362 0.0000
vt 0.3579 0.8517 0.0000
vt 0.3473 0.8551 0.0000
vt 0.3615 0.8260 0.0000
vt 0.3659 0.8398 0.0000
vt 0.3657 0.8401 0.0000
vt 0.3593 0.8422 0.0000
vt 0.1995 0.8404 0.0000
vt 0.2129 0.8476 0.0000
vt 0.2027 0.8507 0.0000
vt 0.1846 0.8322 0.0000
vt 0.1958 0.8287 0.0000
vt 0.1978 0.8351 0.0000
vt 0.1866 0.8386 0.0000
vt 0.1928 0.7999 0.0000
vt 0.1810 0.7995 0.0000
vt 0.1814 0.7888 0.0000
vt 0.1932 0.7892 0.0000
vt 0.1915 0.8543 0.0000
vt 0.1882 0.8439 0.0000
vt 0.1967 0.8000 0.0000
vt 0.1963 0.8107 0.0000
vt 0.1924 0.8105 0.0000
vt 0.1815 0.7849 0.0000
vt 0.1933 0.7853 0.0000
vt 0.1771 0.7993 0.0000
vt 0.1775 0.7887 0.0000
vt 0.1923 0.8144 0.0000
vt 0.1805 0.8140 0.0000
vt 0.1807 0.8101 0.0000
vt 0.1833 0.8414 0.0000
vt 0.1813 0.8574 0.0000
vt 0.1769 0.8434 0.0000
vt 0.1971 0.7894 0.0000
vt 0.1767 0.8100 0.0000
vt 0.1768 0.7993 0.0000
vt 0.1772 0.7889 0.0000
vt 0.1818 0.7846 0.0000
vt 0.1930 0.7850 0.0000
vt 0.1973 0.7896 0.0000
vt 0.1970 0.8000 0.0000
vt 0.1811 0.8575 0.0000
vt 0.1767 0.8437 0.0000
vt 0.1848 0.8319 0.0000
vt 0.1955 0.8285 0.0000
vt 0.2085 0.8335 0.0000
vt 0.2088 0.8337 0.0000
vt 0.2131 0.8475 0.0000
vt 0.2020 0.8355 0.0000
# 284 texture coords

g table_yellow
usemtl table_jaune
s 2
f 1/1/1 2/2/1 3/3/1 4/4/1 
s 4
f 5/5/2 6/6/2 7/7/2 8/8/2 
s 8
f 8/9/3 7/10/3 3/11/3 2/12/3 
s 16
f 5/13/4 8/14/4 2/15/4 1/16/4 
s 32
f 6/17/5 5/13/5 1/16/5 4/18/5 
s 64
f 7/10/6 6/19/6 4/20/6 3/11/6 
s 1
f 9/21/3 10/22/3 11/23/3 12/24/3 
s 2
f 13/25/4 9/21/4 12/24/4 14/26/4 
s 1
f 15/27/5 13/28/5 14/29/5 16/30/5 
s 2
f 10/31/6 15/27/6 16/30/6 11/32/6 
s 4
f 17/33/1 18/34/1 11/32/1 16/30/1 
f 19/35/1 17/33/1 16/30/1 14/29/1 
f 20/36/1 19/37/1 14/26/1 12/24/1 
f 18/38/1 20/36/1 12/24/1 11/23/1 
s 1
f 21/39/4 22/40/4 18/34/4 17/33/4 
s 2
f 23/41/3 21/39/3 17/33/3 19/35/3 
s 1
f 24/42/6 23/43/6 19/37/6 20/36/6 
s 2
f 22/44/5 24/42/5 20/36/5 18/38/5 
s 1
f 25/45/3 26/46/3 27/47/3 28/48/3 
f 29/49/4 30/50/4 31/51/4 32/52/4 
f 33/53/5 34/54/5 35/55/5 36/56/5 
f 37/57/6 38/58/6 39/59/6 40/60/6 
f 41/61/4 42/62/4 43/63/4 44/64/4 
f 45/65/6 46/66/6 47/67/6 48/68/6 
f 49/69/1 50/70/1 51/71/1 52/72/1 
f 53/73/1 54/74/1 55/75/1 56/76/1 
f 57/77/2 58/78/2 59/79/2 60/80/2 
f 61/81/2 62/82/2 63/83/2 64/84/2 
f 65/85/4 66/86/4 67/87/4 68/88/4 
f 69/89/6 70/90/6 71/91/6 72/92/6 
f 73/93/3 74/94/3 75/95/3 76/96/3 
f 77/97/4 78/98/4 79/99/4 80/100/4 
f 81/101/5 82/102/5 83/103/5 84/104/5 
f 85/105/6 86/106/6 87/107/6 88/108/6 
s 2
f 30/50/7 25/45/7 28/48/7 31/51/7 
f 40/109/8 27/47/8 26/46/8 37/110/8 
f 34/54/9 29/49/9 32/52/9 35/55/9 
f 38/58/10 33/53/10 36/56/10 39/59/10 
f 47/67/11 52/72/11 51/71/11 48/68/11 
f 43/63/12 56/76/12 55/75/12 44/64/12 
f 41/61/13 60/80/13 59/79/13 42/62/13 
f 45/65/14 64/84/14 63/83/14 46/66/14 
f 67/87/12 50/111/12 49/112/12 68/88/12 
f 71/91/11 54/113/11 53/114/11 72/92/11 
f 69/89/14 58/78/14 57/77/14 70/90/14 
f 65/85/13 62/82/13 61/81/13 66/86/13 
f 78/115/7 73/93/7 76/96/7 79/116/7 
f 88/108/8 75/95/8 74/94/8 85/105/8 
f 82/102/9 77/97/9 80/100/9 83/103/9 
f 86/106/10 81/101/10 84/104/10 87/107/10 
s 1
f 89/117/6 90/118/6 91/119/6 
s 2
f 92/120/15 93/121/15 94/122/15 95/123/15 
f 96/124/1 97/125/1 98/126/1 99/127/1 
s 4
f 100/128/3 101/129/3 89/117/3 91/119/3 
s 1
f 96/124/4 102/130/4 100/131/4 103/132/4 
s 4
f 104/133/5 105/134/5 99/127/5 98/126/5 
s 1
f 97/125/6 90/135/6 104/136/6 98/126/6 
s 4
f 100/137/3 91/138/3 106/139/3 103/132/3 
s 2
f 103/132/1 106/139/1 97/125/1 96/124/1 
s 1
f 95/140/4 101/129/4 102/141/4 92/142/4 
f 99/127/4 105/143/4 102/130/4 96/124/4 
f 106/139/6 91/144/6 90/135/6 97/125/6 
s 2
f 104/136/2 90/135/2 107/145/2 108/146/2 
f 105/134/2 104/133/2 108/147/2 109/148/2 
f 102/130/2 105/143/2 109/149/2 110/150/2 
s 4
f 92/142/16 102/141/17 110/151/17 111/152/16 
f 93/121/18 92/120/16 111/153/16 112/154/18 
f 90/118/5 93/155/18 112/156/18 107/157/5 
s 8
f 101/129/19 95/123/19 94/122/19 89/117/19 
s 1
f 94/158/6 93/155/6 90/118/6 89/117/6 
f 101/129/4 100/128/4 102/141/4 
f 113/159/6 114/160/6 115/161/6 
s 2
f 116/162/2 117/163/2 118/164/2 119/165/2 
f 120/166/1 121/167/1 122/168/1 123/169/1 
s 4
f 113/159/5 115/161/5 124/170/5 125/171/5 
s 1
f 126/172/4 125/173/4 127/174/4 123/169/4 
s 4
f 121/167/3 120/166/3 128/175/3 129/176/3 
s 1
f 121/167/6 129/177/6 114/178/6 122/168/6 
s 4
f 126/172/5 130/179/5 113/180/5 125/181/5 
s 2
f 123/169/1 122/168/1 130/179/1 126/172/1 
s 1
f 119/182/4 127/183/4 124/170/4 116/184/4 
f 123/169/4 127/174/4 128/185/4 120/166/4 
f 122/168/6 114/178/6 113/186/6 130/179/6 
s 2
f 131/187/2 132/188/2 114/178/2 129/177/2 
f 133/189/2 131/190/2 129/176/2 128/175/2 
f 134/191/2 133/192/2 128/185/2 127/174/2 
s 4
f 135/193/20 134/194/21 127/183/21 119/182/20 
f 136/195/22 135/196/20 119/165/20 118/164/22 
f 132/197/3 136/198/22 118/199/22 114/160/3 
s 8
f 115/161/23 117/163/23 116/162/23 124/170/23 
s 1
f 115/161/6 114/160/6 118/199/6 117/200/6 
f 127/183/4 125/171/4 124/170/4 
f 137/201/6 138/202/6 139/203/6 
s 2
f 140/204/2 141/205/2 142/206/2 143/207/2 
f 144/208/1 145/209/1 146/210/1 147/211/1 
s 4
f 137/201/5 139/203/5 148/212/5 149/213/5 
s 1
f 150/214/4 149/215/4 151/216/4 147/211/4 
s 4
f 145/209/3 144/208/3 152/217/3 153/218/3 
s 1
f 145/209/6 153/219/6 138/220/6 146/210/6 
s 4
f 150/214/5 154/221/5 137/222/5 149/223/5 
s 2
f 147/211/1 146/210/1 154/221/1 150/214/1 
s 1
f 143/224/4 151/225/4 148/212/4 140/226/4 
f 147/211/4 151/216/4 152/227/4 144/208/4 
f 146/210/6 138/220/6 137/228/6 154/221/6 
s 2
f 155/229/2 156/230/2 138/220/2 153/219/2 
f 157/231/2 155/232/2 153/218/2 152/217/2 
f 158/233/2 157/234/2 152/227/2 151/216/2 
s 4
f 159/235/20 158/236/21 151/225/21 143/224/20 
f 160/237/22 159/238/20 143/207/20 142/206/22 
f 156/239/3 160/240/22 142/241/22 138/202/3 
s 8
f 139/203/23 141/205/23 140/204/23 148/212/23 
s 1
f 139/203/6 138/202/6 142/241/6 141/242/6 
f 151/225/4 149/213/4 148/212/4 
f 161/243/6 162/244/6 163/245/6 
s 2
f 164/246/15 165/247/15 166/248/15 167/249/15 
f 168/250/1 169/251/1 170/252/1 171/253/1 
s 4
f 172/254/3 173/255/3 161/243/3 163/245/3 
s 1
f 168/250/4 174/256/4 172/257/4 175/258/4 
s 4
f 176/259/5 177/260/5 171/253/5 170/252/5 
s 1
f 169/251/6 162/261/6 176/262/6 170/252/6 
s 4
f 172/263/3 163/264/3 178/265/3 175/258/3 
s 2
f 175/258/1 178/265/1 169/251/1 168/250/1 
s 1
f 167/266/4 173/255/4 174/267/4 164/268/4 
f 171/253/4 177/269/4 174/256/4 168/250/4 
f 178/265/6 163/270/6 162/261/6 169/251/6 
s 2
f 176/262/2 162/261/2 179/271/2 180/272/2 
f 177/260/2 176/259/2 180/273/2 181/274/2 
f 174/256/2 177/269/2 181/275/2 182/276/2 
s 4
f 164/268/16 174/267/17 182/277/17 183/278/16 
f 165/247/18 164/246/16 183/279/16 184/280/18 
f 162/244/5 165/281/18 184/282/18 179/283/5 
s 8
f 173/255/19 167/249/19 166/248/19 161/243/19 
s 1
f 166/284/6 165/281/6 162/244/6 161/243/6 
f 173/255/4 172/254/4 174/267/4 
# 126 polygons - 8 triangles

